<?xml version="1.0" encoding="UTF-8" standalone="no"?>
<!DOCTYPE svg PUBLIC "-//W3C//DTD SVG 1.1//EN"
 "http://www.w3.org/Graphics/SVG/1.1/DTD/svg11.dtd">
<!-- Generated by graphviz version 2.38.0 (20140413.2041)
 -->
<!-- Title: %3 Pages: 1 -->
<svg width="2898pt" height="1288pt"
 viewBox="0.00 0.00 2898.20 1288.00" xmlns="http://www.w3.org/2000/svg" xmlns:xlink="http://www.w3.org/1999/xlink">
<g id="graph0" class="graph" transform="scale(1 1) rotate(0) translate(4 1284)">
<title>%3</title>
<polygon fill="white" stroke="none" points="-4,4 -4,-1284 2894.2,-1284 2894.2,4 -4,4"/>
<!-- category -->
<g id="node1" class="node"><title>category</title>
<polygon fill="none" stroke="black" points="1415.48,-1095.5 1415.48,-1153.5 1496.4,-1153.5 1496.4,-1095.5 1415.48,-1095.5"/>
<text text-anchor="middle" x="1455.64" y="-1138.3" font-family="Times,serif" font-size="14.00">Category</text>
<polyline fill="none" stroke="black" points="1415.48,-1131.5 1496.4,-1131.5 "/>
<text text-anchor="start" x="1423.48" y="-1116.3" font-family="Times,serif" font-size="14.00">id :: cat a a </text>
<text text-anchor="start" x="1423.48" y="-1102.3" font-family="Times,serif" font-size="14.00">(.) = o </text>
</g>
<!-- semigroupoid -->
<g id="node29" class="node"><title>semigroupoid</title>
<polygon fill="none" stroke="black" points="957.999,-1172.5 957.999,-1216.5 1107.59,-1216.5 1107.59,-1172.5 957.999,-1172.5"/>
<text text-anchor="middle" x="1032.52" y="-1201.3" font-family="Times,serif" font-size="14.00">Semigroupoid c</text>
<polyline fill="none" stroke="black" points="957.999,-1194.5 1107.59,-1194.5 "/>
<text text-anchor="start" x="965.999" y="-1179.3" font-family="Times,serif" font-size="14.00">o :: c j k &#45;&gt; c i j &#45;&gt; c i k </text>
</g>
<!-- category&#45;&gt;semigroupoid -->
<g id="edge43" class="edge"><title>category&#45;&gt;semigroupoid</title>
<path fill="none" stroke="black" d="M1415.32,-1131.09C1347.53,-1142.35 1207.87,-1165.57 1117.64,-1180.56"/>
<polygon fill="black" stroke="black" points="1117,-1177.12 1107.71,-1182.21 1118.15,-1184.03 1117,-1177.12"/>
</g>
<!-- functor -->
<g id="node2" class="node"><title>functor</title>
<polygon fill="none" stroke="black" points="0,-403.5 0,-447.5 202.409,-447.5 202.409,-403.5 0,-403.5"/>
<text text-anchor="middle" x="100.776" y="-432.3" font-family="Times,serif" font-size="14.00">Functor</text>
<polyline fill="none" stroke="black" points="0,-425.5 202.409,-425.5 "/>
<text text-anchor="middle" x="101.205" y="-410.3" font-family="Times,serif" font-size="14.00">fmap(&lt;$&gt;) :: (a &#45;&gt; b) &#45;&gt; f a &#45;&gt; f b</text>
</g>
<!-- applicative -->
<g id="node3" class="node"><title>applicative</title>
<polygon fill="none" stroke="black" points="628.125,-338.5 628.125,-396.5 727.428,-396.5 727.428,-338.5 628.125,-338.5"/>
<text text-anchor="middle" x="677.28" y="-381.3" font-family="Times,serif" font-size="14.00">Applicative</text>
<polyline fill="none" stroke="black" points="628.125,-374.5 727.428,-374.5 "/>
<text text-anchor="start" x="636.125" y="-359.3" font-family="Times,serif" font-size="14.00">pure :: a &#45;&gt; f a </text>
<text text-anchor="start" x="636.125" y="-345.3" font-family="Times,serif" font-size="14.00">(&lt;*&gt;) = &lt;.&gt;</text>
</g>
<!-- apply -->
<g id="node27" class="node"><title>apply</title>
<polygon fill="none" stroke="black" points="280.789,-403.5 280.789,-447.5 462.594,-447.5 462.594,-403.5 280.789,-403.5"/>
<text text-anchor="middle" x="371.37" y="-432.3" font-family="Times,serif" font-size="14.00">Apply f</text>
<polyline fill="none" stroke="black" points="280.789,-425.5 462.594,-425.5 "/>
<text text-anchor="start" x="288.789" y="-410.3" font-family="Times,serif" font-size="14.00">(&lt;.&gt;) :: f (a &#45;&gt; b) &#45;&gt; f a &#45;&gt; f b </text>
</g>
<!-- applicative&#45;&gt;apply -->
<g id="edge33" class="edge"><title>applicative&#45;&gt;apply</title>
<path fill="none" stroke="black" d="M627.92,-376.819C586.203,-384.776 524.862,-396.476 472.771,-406.411"/>
<polygon fill="black" stroke="black" points="471.99,-402.997 462.823,-408.309 473.301,-409.873 471.99,-402.997"/>
</g>
<!-- alternative -->
<g id="node4" class="node"><title>alternative</title>
<polygon fill="none" stroke="black" points="960.576,-338.5 960.576,-396.5 1105.02,-396.5 1105.02,-338.5 960.576,-338.5"/>
<text text-anchor="middle" x="1032.56" y="-381.3" font-family="Times,serif" font-size="14.00">Alternative</text>
<polyline fill="none" stroke="black" points="960.576,-374.5 1105.02,-374.5 "/>
<text text-anchor="start" x="968.576" y="-359.3" font-family="Times,serif" font-size="14.00">empty :: f a </text>
<text text-anchor="start" x="968.576" y="-345.3" font-family="Times,serif" font-size="14.00">(&lt;|&gt;) :: f a &#45;&gt; f a &#45;&gt; f a </text>
</g>
<!-- alternative&#45;&gt;applicative -->
<g id="edge34" class="edge"><title>alternative&#45;&gt;applicative</title>
<path fill="none" stroke="black" d="M960.358,-367.5C894.841,-367.5 798.96,-367.5 737.715,-367.5"/>
<polygon fill="black" stroke="black" points="737.445,-364 727.445,-367.5 737.445,-371 737.445,-364"/>
</g>
<!-- monad -->
<g id="node5" class="node"><title>monad</title>
<polygon fill="none" stroke="black" points="975.755,-781.5 975.755,-839.5 1089.84,-839.5 1089.84,-781.5 975.755,-781.5"/>
<text text-anchor="middle" x="1032.59" y="-824.3" font-family="Times,serif" font-size="14.00">Monad</text>
<polyline fill="none" stroke="black" points="975.755,-817.5 1089.84,-817.5 "/>
<text text-anchor="start" x="983.755" y="-802.3" font-family="Times,serif" font-size="14.00">(&gt;&gt;=) = &gt;&gt;&#45; </text>
<text text-anchor="start" x="983.755" y="-788.3" font-family="Times,serif" font-size="14.00">return :: a &#45;&gt; m a </text>
</g>
<!-- bind -->
<g id="node30" class="node"><title>bind</title>
<polygon fill="none" stroke="black" points="576.951,-781.5 576.951,-839.5 778.602,-839.5 778.602,-781.5 576.951,-781.5"/>
<text text-anchor="middle" x="677.565" y="-824.3" font-family="Times,serif" font-size="14.00">Bind</text>
<polyline fill="none" stroke="black" points="576.951,-817.5 778.602,-817.5 "/>
<text text-anchor="start" x="584.951" y="-802.3" font-family="Times,serif" font-size="14.00">(&gt;&gt;&#45;) :: m a &#45;&gt; (a &#45;&gt; m b) &#45;&gt; m b </text>
<text text-anchor="start" x="584.951" y="-788.3" font-family="Times,serif" font-size="14.00">join :: m (m a) &#45;&gt; m a </text>
</g>
<!-- monad&#45;&gt;bind -->
<g id="edge35" class="edge"><title>monad&#45;&gt;bind</title>
<path fill="none" stroke="black" d="M975.469,-810.5C925.405,-810.5 850.776,-810.5 788.893,-810.5"/>
<polygon fill="black" stroke="black" points="788.683,-807 778.683,-810.5 788.683,-814 788.683,-807"/>
</g>
<!-- monadplus -->
<g id="node6" class="node"><title>monadplus</title>
<polygon fill="none" stroke="black" points="1845.15,-788.5 1845.15,-832.5 1935.12,-832.5 1935.12,-788.5 1845.15,-788.5"/>
<text text-anchor="middle" x="1890.05" y="-817.3" font-family="Times,serif" font-size="14.00">MonadPlus</text>
<polyline fill="none" stroke="black" points="1845.15,-810.5 1935.12,-810.5 "/>
<text text-anchor="middle" x="1890.14" y="-795.3" font-family="Times,serif" font-size="14.00">mzero = zero</text>
</g>
<!-- monadplus&#45;&gt;monad -->
<g id="edge37" class="edge"><title>monadplus&#45;&gt;monad</title>
<path fill="none" stroke="black" d="M1844.95,-810.5C1704.47,-810.5 1267.53,-810.5 1100.05,-810.5"/>
<polygon fill="black" stroke="black" points="1099.89,-807 1089.89,-810.5 1099.89,-814 1099.89,-807"/>
</g>
<!-- plus -->
<g id="node34" class="node"><title>plus</title>
<polygon fill="none" stroke="black" points="1419.57,-492.5 1419.57,-536.5 1492.31,-536.5 1492.31,-492.5 1419.57,-492.5"/>
<text text-anchor="middle" x="1455.71" y="-521.3" font-family="Times,serif" font-size="14.00">Plus f</text>
<polyline fill="none" stroke="black" points="1419.57,-514.5 1492.31,-514.5 "/>
<text text-anchor="start" x="1427.57" y="-499.3" font-family="Times,serif" font-size="14.00">zero :: f a </text>
</g>
<!-- monadplus&#45;&gt;plus -->
<g id="edge38" class="edge"><title>monadplus&#45;&gt;plus</title>
<path fill="none" stroke="black" d="M1877.49,-788.415C1848.67,-736.19 1768.46,-605.022 1660.87,-545.5 1611.65,-518.276 1546.07,-512.788 1502.73,-512.612"/>
<polygon fill="black" stroke="black" points="1502.46,-509.113 1492.48,-512.668 1502.5,-516.113 1502.46,-509.113"/>
</g>
<!-- monadzip -->
<g id="node7" class="node"><title>monadzip</title>
<polygon fill="none" stroke="black" points="1316.52,-723.5 1316.52,-781.5 1595.36,-781.5 1595.36,-723.5 1316.52,-723.5"/>
<text text-anchor="middle" x="1455.57" y="-766.3" font-family="Times,serif" font-size="14.00">MonadZip</text>
<polyline fill="none" stroke="black" points="1316.52,-759.5 1595.36,-759.5 "/>
<text text-anchor="start" x="1324.52" y="-744.3" font-family="Times,serif" font-size="14.00">mzip :: m a &#45;&gt; m b &#45;&gt; m (a, b)</text>
<text text-anchor="start" x="1324.52" y="-730.3" font-family="Times,serif" font-size="14.00">mzipWith :: (a &#45;&gt; b &#45;&gt; c) &#45;&gt; m a &#45;&gt; m b &#45;&gt; m c </text>
</g>
<!-- monadzip&#45;&gt;monad -->
<g id="edge39" class="edge"><title>monadzip&#45;&gt;monad</title>
<path fill="none" stroke="black" d="M1316.46,-771.572C1243.75,-781.585 1157.99,-793.395 1100.16,-801.36"/>
<polygon fill="black" stroke="black" points="1099.49,-797.92 1090.06,-802.751 1100.44,-804.854 1099.49,-797.92"/>
</g>
<!-- arrow -->
<g id="node8" class="node"><title>arrow</title>
<polygon fill="none" stroke="black" points="1772.41,-1034.5 1772.41,-1134.5 2007.86,-1134.5 2007.86,-1034.5 1772.41,-1034.5"/>
<text text-anchor="middle" x="1889.68" y="-1119.3" font-family="Times,serif" font-size="14.00">Arrow</text>
<polyline fill="none" stroke="black" points="1772.41,-1112.5 2007.86,-1112.5 "/>
<text text-anchor="start" x="1780.41" y="-1097.3" font-family="Times,serif" font-size="14.00">arr :: (b &#45;&gt; c) &#45;&gt; a b c </text>
<text text-anchor="start" x="1780.41" y="-1083.3" font-family="Times,serif" font-size="14.00">first :: a b c &#45;&gt; a (b, d) (c, d) </text>
<text text-anchor="start" x="1780.41" y="-1069.3" font-family="Times,serif" font-size="14.00">second :: a b c &#45;&gt; a (d, b) (d, c) </text>
<text text-anchor="start" x="1780.41" y="-1055.3" font-family="Times,serif" font-size="14.00">(***) :: a b c &#45;&gt; a b&#39; c&#39; &#45;&gt; a (b, b&#39;) (c, c&#39;)</text>
<text text-anchor="start" x="1780.41" y="-1041.3" font-family="Times,serif" font-size="14.00">(&amp;&amp;&amp;) :: a b c &#45;&gt; a b c&#39; &#45;&gt; a b (c, c&#39;)</text>
</g>
<!-- arrow&#45;&gt;category -->
<g id="edge42" class="edge"><title>arrow&#45;&gt;category</title>
<path fill="none" stroke="black" d="M1772.18,-1095.32C1685.39,-1103.36 1571.36,-1113.91 1506.93,-1119.87"/>
<polygon fill="black" stroke="black" points="1506.28,-1116.42 1496.65,-1120.83 1506.93,-1123.39 1506.28,-1116.42"/>
</g>
<!-- monadfix -->
<g id="node9" class="node"><title>monadfix</title>
<polygon fill="none" stroke="black" points="1378.03,-660.5 1378.03,-704.5 1533.85,-704.5 1533.85,-660.5 1378.03,-660.5"/>
<text text-anchor="middle" x="1455.7" y="-689.3" font-family="Times,serif" font-size="14.00">MonadFix</text>
<polyline fill="none" stroke="black" points="1378.03,-682.5 1533.85,-682.5 "/>
<text text-anchor="start" x="1386.03" y="-667.3" font-family="Times,serif" font-size="14.00">mfix :: (a &#45;&gt; m a) &#45;&gt; m a </text>
</g>
<!-- monadfix&#45;&gt;monad -->
<g id="edge36" class="edge"><title>monadfix&#45;&gt;monad</title>
<path fill="none" stroke="black" d="M1377.86,-689.265C1339.24,-693.896 1292.08,-701.451 1251.01,-713.5 1197.29,-729.263 1139.56,-755.53 1097.13,-776.756"/>
<polygon fill="black" stroke="black" points="1095.39,-773.712 1088.04,-781.342 1098.55,-779.961 1095.39,-773.712"/>
</g>
<!-- arrowplus -->
<g id="node10" class="node"><title>arrowplus</title>
<polygon fill="none" stroke="black" points="2461.96,-851.5 2461.96,-895.5 2647.65,-895.5 2647.65,-851.5 2461.96,-851.5"/>
<text text-anchor="middle" x="2554.8" y="-880.3" font-family="Times,serif" font-size="14.00">ArrowPlus</text>
<polyline fill="none" stroke="black" points="2461.96,-873.5 2647.65,-873.5 "/>
<text text-anchor="start" x="2469.96" y="-858.3" font-family="Times,serif" font-size="14.00">(&lt;+&gt;) :: a b c &#45;&gt; a b c &#45;&gt; a b c </text>
</g>
<!-- arrowzero -->
<g id="node11" class="node"><title>arrowzero</title>
<polygon fill="none" stroke="black" points="2213.76,-851.5 2213.76,-895.5 2331.61,-895.5 2331.61,-851.5 2213.76,-851.5"/>
<text text-anchor="middle" x="2272.25" y="-880.3" font-family="Times,serif" font-size="14.00">ArrowZero</text>
<polyline fill="none" stroke="black" points="2213.76,-873.5 2331.61,-873.5 "/>
<text text-anchor="middle" x="2272.69" y="-858.3" font-family="Times,serif" font-size="14.00">zeroArrow :: a b c</text>
</g>
<!-- arrowplus&#45;&gt;arrowzero -->
<g id="edge50" class="edge"><title>arrowplus&#45;&gt;arrowzero</title>
<path fill="none" stroke="black" d="M2461.7,-873.5C2422.8,-873.5 2378.29,-873.5 2342.35,-873.5"/>
<polygon fill="black" stroke="black" points="2341.97,-870 2331.97,-873.5 2341.97,-877 2341.97,-870"/>
</g>
<!-- arrowzero&#45;&gt;monadplus -->
<g id="edge48" class="edge"><title>arrowzero&#45;&gt;monadplus</title>
<path fill="none" stroke="black" d="M2213.47,-863.863C2140.54,-851.789 2016.54,-831.26 1945.47,-819.495"/>
<polygon fill="black" stroke="black" points="1945.82,-816.006 1935.39,-817.825 1944.68,-822.912 1945.82,-816.006"/>
</g>
<!-- arrowzero&#45;&gt;arrow -->
<g id="edge49" class="edge"><title>arrowzero&#45;&gt;arrow</title>
<path fill="none" stroke="black" d="M2235.57,-895.564C2197.91,-918.39 2137.01,-954.79 2083.41,-984.5 2056.24,-999.561 2026.59,-1015.31 1998.9,-1029.73"/>
<polygon fill="black" stroke="black" points="1997.24,-1026.65 1989.98,-1034.37 2000.47,-1032.86 1997.24,-1026.65"/>
</g>
<!-- arrowinit -->
<g id="node12" class="node"><title>arrowinit</title>
<polygon fill="none" stroke="black" points="2503.2,-1146.5 2503.2,-1190.5 2606.42,-1190.5 2606.42,-1146.5 2503.2,-1146.5"/>
<text text-anchor="middle" x="2554.69" y="-1175.3" font-family="Times,serif" font-size="14.00">ArrowInit</text>
<polyline fill="none" stroke="black" points="2503.2,-1168.5 2606.42,-1168.5 "/>
<text text-anchor="middle" x="2554.81" y="-1153.3" font-family="Times,serif" font-size="14.00">init :: b &#45;&gt; a b b</text>
</g>
<!-- arrowloop -->
<g id="node15" class="node"><title>arrowloop</title>
<polygon fill="none" stroke="black" points="2185.32,-1146.5 2185.32,-1190.5 2360.05,-1190.5 2360.05,-1146.5 2185.32,-1146.5"/>
<text text-anchor="middle" x="2272.37" y="-1175.3" font-family="Times,serif" font-size="14.00">ArrowLoop</text>
<polyline fill="none" stroke="black" points="2185.32,-1168.5 2360.05,-1168.5 "/>
<text text-anchor="middle" x="2272.69" y="-1153.3" font-family="Times,serif" font-size="14.00">loop :: a (b, d) (c, d) &#45;&gt; a b c</text>
</g>
<!-- arrowinit&#45;&gt;arrowloop -->
<g id="edge47" class="edge"><title>arrowinit&#45;&gt;arrowloop</title>
<path fill="none" stroke="black" d="M2503.08,-1168.5C2466.07,-1168.5 2414.77,-1168.5 2370.07,-1168.5"/>
<polygon fill="black" stroke="black" points="2370.06,-1165 2360.06,-1168.5 2370.06,-1172 2370.06,-1165"/>
</g>
<!-- arrowchoice -->
<g id="node13" class="node"><title>arrowchoice</title>
<polygon fill="none" stroke="black" points="2119.41,-1041.5 2119.41,-1127.5 2425.96,-1127.5 2425.96,-1041.5 2119.41,-1041.5"/>
<text text-anchor="middle" x="2272.51" y="-1112.3" font-family="Times,serif" font-size="14.00">ArrowChoice</text>
<polyline fill="none" stroke="black" points="2119.41,-1105.5 2425.96,-1105.5 "/>
<text text-anchor="start" x="2127.41" y="-1090.3" font-family="Times,serif" font-size="14.00">left :: a b c &#45;&gt; a (Either b d) (Either c d) </text>
<text text-anchor="start" x="2127.41" y="-1076.3" font-family="Times,serif" font-size="14.00">right :: a b c &#45;&gt; a (Either d b) (Either d c)</text>
<text text-anchor="start" x="2127.41" y="-1062.3" font-family="Times,serif" font-size="14.00">(+++) :: a b c &#45;&gt; a b&#39; c&#39; &#45;&gt; a (Either b b&#39;) (Either c c&#39;)</text>
<text text-anchor="start" x="2127.41" y="-1048.3" font-family="Times,serif" font-size="14.00">(|||) :: a b d &#45;&gt; a c d &#45;&gt; a (Either b c) d</text>
</g>
<!-- arrowchoice&#45;&gt;arrow -->
<g id="edge44" class="edge"><title>arrowchoice&#45;&gt;arrow</title>
<path fill="none" stroke="black" d="M2119.37,-1084.5C2085.86,-1084.5 2050.71,-1084.5 2018.31,-1084.5"/>
<polygon fill="black" stroke="black" points="2017.89,-1081 2007.89,-1084.5 2017.89,-1088 2017.89,-1081"/>
</g>
<!-- arrowapply -->
<g id="node14" class="node"><title>arrowapply</title>
<polygon fill="none" stroke="black" points="2212.6,-978.5 2212.6,-1022.5 2332.77,-1022.5 2332.77,-978.5 2212.6,-978.5"/>
<text text-anchor="middle" x="2272.37" y="-1007.3" font-family="Times,serif" font-size="14.00">ArrowApply</text>
<polyline fill="none" stroke="black" points="2212.6,-1000.5 2332.77,-1000.5 "/>
<text text-anchor="middle" x="2272.69" y="-985.3" font-family="Times,serif" font-size="14.00">app :: a (a b c, b) c</text>
</g>
<!-- arrowapply&#45;&gt;arrow -->
<g id="edge45" class="edge"><title>arrowapply&#45;&gt;arrow</title>
<path fill="none" stroke="black" d="M2212.31,-1012.2C2184.12,-1017.85 2149.99,-1024.84 2119.41,-1031.5 2086.53,-1038.66 2051.08,-1046.73 2018.14,-1054.36"/>
<polygon fill="black" stroke="black" points="2016.95,-1051.05 2008.01,-1056.72 2018.54,-1057.86 2016.95,-1051.05"/>
</g>
<!-- arrowloop&#45;&gt;arrow -->
<g id="edge46" class="edge"><title>arrowloop&#45;&gt;arrow</title>
<path fill="none" stroke="black" d="M2185.06,-1150.56C2163.59,-1146.04 2140.65,-1141.15 2119.41,-1136.5 2086.57,-1129.31 2051.13,-1121.34 2018.2,-1113.84"/>
<polygon fill="black" stroke="black" points="2018.59,-1110.34 2008.06,-1111.53 2017.03,-1117.17 2018.59,-1110.34"/>
</g>
<!-- cca -->
<g id="node16" class="node"><title>cca</title>
<polygon fill="none" stroke="black" points="2683.65,-1150.5 2683.65,-1186.5 2890.2,-1186.5 2890.2,-1150.5 2683.65,-1150.5"/>
<text text-anchor="middle" x="2786.93" y="-1164.3" font-family="Times,serif" font-size="14.00">Causal Commutive Arrows(CCA)</text>
</g>
<!-- cca&#45;&gt;arrowinit -->
<g id="edge51" class="edge"><title>cca&#45;&gt;arrowinit</title>
<path fill="none" stroke="black" d="M2683.32,-1168.5C2660.56,-1168.5 2637.14,-1168.5 2616.68,-1168.5"/>
<polygon fill="black" stroke="black" points="2616.58,-1165 2606.58,-1168.5 2616.58,-1172 2616.58,-1165"/>
</g>
<!-- monoid -->
<g id="node17" class="node"><title>monoid</title>
<polygon fill="none" stroke="black" points="293.001,-92.5 293.001,-150.5 450.382,-150.5 450.382,-92.5 293.001,-92.5"/>
<text text-anchor="middle" x="371.365" y="-135.3" font-family="Times,serif" font-size="14.00">Monoid m</text>
<polyline fill="none" stroke="black" points="293.001,-128.5 450.382,-128.5 "/>
<text text-anchor="start" x="301.001" y="-113.3" font-family="Times,serif" font-size="14.00">mempty :: m </text>
<text text-anchor="start" x="301.001" y="-99.3" font-family="Times,serif" font-size="14.00">mappend :: m &#45;&gt; m &#45;&gt; m </text>
</g>
<!-- foldable -->
<g id="node18" class="node"><title>foldable</title>
<polygon fill="none" stroke="black" points="540.974,-121.5 540.974,-179.5 814.579,-179.5 814.579,-121.5 540.974,-121.5"/>
<text text-anchor="middle" x="677.665" y="-164.3" font-family="Times,serif" font-size="14.00">Foldable t</text>
<polyline fill="none" stroke="black" points="540.974,-157.5 814.579,-157.5 "/>
<text text-anchor="start" x="548.974" y="-142.3" font-family="Times,serif" font-size="14.00">foldMap :: Monoid m =&gt; (a &#45;&gt; m) &#45;&gt; t a &#45;&gt; m </text>
<text text-anchor="start" x="548.974" y="-128.3" font-family="Times,serif" font-size="14.00">foldr :: (a &#45;&gt; b &#45;&gt; b) &#45;&gt; b &#45;&gt; t a &#45;&gt; b </text>
</g>
<!-- foldable&#45;&gt;monoid -->
<g id="edge53" class="edge"><title>foldable&#45;&gt;monoid</title>
<path fill="none" stroke="black" stroke-dasharray="5,2" d="M540.743,-137.527C513.641,-134.942 485.853,-132.292 460.875,-129.91"/>
<polygon fill="black" stroke="black" points="461.007,-126.407 450.72,-128.941 460.343,-133.375 461.007,-126.407"/>
</g>
<!-- traversable -->
<g id="node19" class="node"><title>traversable</title>
<polygon fill="none" stroke="black" points="878.33,-179.5 878.33,-237.5 1187.26,-237.5 1187.26,-179.5 878.33,-179.5"/>
<text text-anchor="middle" x="1032.62" y="-222.3" font-family="Times,serif" font-size="14.00">Traversable</text>
<polyline fill="none" stroke="black" points="878.33,-215.5 1187.26,-215.5 "/>
<text text-anchor="start" x="886.33" y="-200.3" font-family="Times,serif" font-size="14.00">traverse :: Applicative f =&gt; (a &#45;&gt; f b) &#45;&gt; t a &#45;&gt; f (t b) </text>
<text text-anchor="start" x="886.33" y="-186.3" font-family="Times,serif" font-size="14.00">sequenceA :: Applicative f =&gt; t (f a) &#45;&gt; f (t a) </text>
</g>
<!-- traversable&#45;&gt;functor -->
<g id="edge31" class="edge"><title>traversable&#45;&gt;functor</title>
<path fill="none" stroke="black" d="M878.05,-202.001C679.265,-196.112 345.83,-195.522 238.409,-251.5 178.441,-282.75 136.48,-353.46 116.16,-394.473"/>
<polygon fill="black" stroke="black" points="113.005,-392.957 111.807,-403.484 119.308,-396.002 113.005,-392.957"/>
</g>
<!-- traversable&#45;&gt;applicative -->
<g id="edge52" class="edge"><title>traversable&#45;&gt;applicative</title>
<path fill="none" stroke="black" stroke-dasharray="5,2" d="M955.568,-237.532C921.971,-251.989 882.878,-271.168 850.579,-293.5 832.224,-306.191 833.884,-317.306 814.579,-328.5 791.079,-342.127 762.498,-351.262 737.629,-357.242"/>
<polygon fill="black" stroke="black" points="736.553,-353.898 727.584,-359.537 738.113,-360.722 736.553,-353.898"/>
</g>
<!-- traversable&#45;&gt;foldable -->
<g id="edge32" class="edge"><title>traversable&#45;&gt;foldable</title>
<path fill="none" stroke="black" d="M878.24,-183.271C860.599,-180.373 842.646,-177.423 825.103,-174.541"/>
<polygon fill="black" stroke="black" points="825.262,-171.02 814.826,-172.853 824.127,-177.928 825.262,-171.02"/>
</g>
<!-- contravariant -->
<g id="node20" class="node"><title>contravariant</title>
<polygon fill="none" stroke="black" points="2690.7,-1205.5 2690.7,-1249.5 2883.15,-1249.5 2883.15,-1205.5 2690.7,-1205.5"/>
<text text-anchor="middle" x="2786.69" y="-1234.3" font-family="Times,serif" font-size="14.00">Contravariant</text>
<polyline fill="none" stroke="black" points="2690.7,-1227.5 2883.15,-1227.5 "/>
<text text-anchor="middle" x="2786.93" y="-1212.3" font-family="Times,serif" font-size="14.00">contramap :: (a &#45;&gt; b) &#45;&gt; b &#45;&gt; f a</text>
</g>
<!-- monadstate -->
<g id="node21" class="node"><title>monadstate</title>
<polygon fill="none" stroke="black" points="1374.73,-555.5 1374.73,-641.5 1537.15,-641.5 1537.15,-555.5 1374.73,-555.5"/>
<text text-anchor="middle" x="1455.81" y="-626.3" font-family="Times,serif" font-size="14.00">MonadState </text>
<text text-anchor="middle" x="1455.81" y="-612.3" font-family="Times,serif" font-size="14.00"> s m | m &#45;&gt; s</text>
<polyline fill="none" stroke="black" points="1374.73,-605.5 1537.15,-605.5 "/>
<text text-anchor="start" x="1382.73" y="-590.3" font-family="Times,serif" font-size="14.00">get :: m s </text>
<text text-anchor="start" x="1382.73" y="-576.3" font-family="Times,serif" font-size="14.00">put :: s &#45;&gt; m () </text>
<text text-anchor="start" x="1382.73" y="-562.3" font-family="Times,serif" font-size="14.00">state :: (s &#45;&gt; (a, s)) &#45;&gt; m a </text>
</g>
<!-- monadstate&#45;&gt;monad -->
<g id="edge40" class="edge"><title>monadstate&#45;&gt;monad</title>
<path fill="none" stroke="black" d="M1374.53,-611.558C1335.96,-619.664 1289.81,-632.126 1251.01,-650.5 1182.61,-682.892 1114.02,-738.137 1072.73,-774.482"/>
<polygon fill="black" stroke="black" points="1070.25,-772.005 1065.09,-781.262 1074.89,-777.239 1070.25,-772.005"/>
</g>
<!-- monaderror -->
<g id="node22" class="node"><title>monaderror</title>
<polygon fill="none" stroke="black" points="1341.25,-902.5 1341.25,-974.5 1570.62,-974.5 1570.62,-902.5 1341.25,-902.5"/>
<text text-anchor="middle" x="1455.6" y="-959.3" font-family="Times,serif" font-size="14.00">MonadError </text>
<text text-anchor="middle" x="1455.6" y="-945.3" font-family="Times,serif" font-size="14.00"> e m | m &#45;&gt; e</text>
<polyline fill="none" stroke="black" points="1341.25,-938.5 1570.62,-938.5 "/>
<text text-anchor="start" x="1349.25" y="-923.3" font-family="Times,serif" font-size="14.00">throwErroe :: e &#45;&gt; m a </text>
<text text-anchor="start" x="1349.25" y="-909.3" font-family="Times,serif" font-size="14.00">catchError :: m a &#45;&gt; (e &#45;&gt; m a) &#45;&gt; m a </text>
</g>
<!-- monaderror&#45;&gt;monad -->
<g id="edge41" class="edge"><title>monaderror&#45;&gt;monad</title>
<path fill="none" stroke="black" d="M1341.22,-915.788C1311.64,-909.08 1279.95,-901.181 1251.01,-892.5 1199.33,-876.996 1142.29,-855.283 1099.64,-838.094"/>
<polygon fill="black" stroke="black" points="1100.8,-834.788 1090.22,-834.277 1098.18,-841.276 1100.8,-834.788"/>
</g>
<!-- comonad -->
<g id="node23" class="node"><title>comonad</title>
<polygon fill="none" stroke="black" points="1396.96,-993.5 1396.96,-1037.5 1514.92,-1037.5 1514.92,-993.5 1396.96,-993.5"/>
<text text-anchor="middle" x="1455.49" y="-1022.3" font-family="Times,serif" font-size="14.00">Comonad w</text>
<polyline fill="none" stroke="black" points="1396.96,-1015.5 1514.92,-1015.5 "/>
<text text-anchor="start" x="1404.96" y="-1000.3" font-family="Times,serif" font-size="14.00">extract :: w a &#45;&gt; a </text>
</g>
<!-- comonad&#45;&gt;monad -->
<g id="edge20" class="edge"><title>comonad&#45;&gt;monad</title>
<path fill="none" stroke="black" stroke-dasharray="5,2" d="M1396.91,-1014.27C1354.84,-1011.53 1297.44,-1003.9 1251.01,-983.5 1172.67,-949.068 1098.54,-879.214 1060.45,-839.612"/>
</g>
<!-- extend -->
<g id="node33" class="node"><title>extend</title>
<polygon fill="none" stroke="black" points="261.658,-809.5 261.658,-867.5 481.725,-867.5 481.725,-809.5 261.658,-809.5"/>
<text text-anchor="middle" x="371.291" y="-852.3" font-family="Times,serif" font-size="14.00">Extend w</text>
<polyline fill="none" stroke="black" points="261.658,-845.5 481.725,-845.5 "/>
<text text-anchor="start" x="269.658" y="-830.3" font-family="Times,serif" font-size="14.00">duplicated :: w a &#45;&gt; w (w a) </text>
<text text-anchor="start" x="269.658" y="-816.3" font-family="Times,serif" font-size="14.00">extended :: (w a &#45;&gt; b) &#45;&gt; w a &#45;&gt; w b </text>
</g>
<!-- comonad&#45;&gt;extend -->
<g id="edge19" class="edge"><title>comonad&#45;&gt;extend</title>
<path fill="none" stroke="black" d="M1396.91,-1006.52C1356.09,-1000.17 1300.19,-991.418 1251.01,-983.5 979.293,-939.753 660.595,-886.705 491.757,-858.465"/>
<polygon fill="black" stroke="black" points="492.287,-855.005 481.847,-856.807 491.132,-861.909 492.287,-855.005"/>
</g>
<!-- bifunctor -->
<g id="node24" class="node"><title>bifunctor</title>
<polygon fill="none" stroke="black" points="238.409,-261.5 238.409,-333.5 504.974,-333.5 504.974,-261.5 238.409,-261.5"/>
<text text-anchor="middle" x="371.487" y="-318.3" font-family="Times,serif" font-size="14.00">Bifunctor p</text>
<polyline fill="none" stroke="black" points="238.409,-311.5 504.974,-311.5 "/>
<text text-anchor="start" x="246.409" y="-296.3" font-family="Times,serif" font-size="14.00">bimap :: (a &#45;&gt; b) &#45;&gt; (c &#45;&gt; d) &#45;&gt; p a c &#45;&gt; p b d </text>
<text text-anchor="start" x="246.409" y="-282.3" font-family="Times,serif" font-size="14.00">first :: (a &#45;&gt; b) &#45;&gt; p a c &#45;&gt; p b c </text>
<text text-anchor="start" x="246.409" y="-268.3" font-family="Times,serif" font-size="14.00">second :: (b &#45;&gt; c) &#45;&gt; p a b &#45;&gt; p c </text>
</g>
<!-- bifunctor&#45;&gt;functor -->
<g id="edge23" class="edge"><title>bifunctor&#45;&gt;functor</title>
<path fill="none" stroke="black" stroke-dasharray="5,2" d="M294.83,-333.666C247.69,-356.14 188.621,-384.302 148.407,-403.473"/>
</g>
<!-- biapply -->
<g id="node25" class="node"><title>biapply</title>
<polygon fill="none" stroke="black" points="542.566,-275.5 542.566,-319.5 812.986,-319.5 812.986,-275.5 542.566,-275.5"/>
<text text-anchor="middle" x="677.482" y="-304.3" font-family="Times,serif" font-size="14.00">Biapply p</text>
<polyline fill="none" stroke="black" points="542.566,-297.5 812.986,-297.5 "/>
<text text-anchor="start" x="550.566" y="-282.3" font-family="Times,serif" font-size="14.00">(&lt;&lt;.&gt;&gt;) :: p (a &#45;&gt; b) (c &#45;&gt; d) &#45;&gt; p a c &#45;&gt; p b d </text>
</g>
<!-- biapply&#45;&gt;bifunctor -->
<g id="edge21" class="edge"><title>biapply&#45;&gt;bifunctor</title>
<path fill="none" stroke="black" d="M542.515,-297.5C533.499,-297.5 524.397,-297.5 515.341,-297.5"/>
<polygon fill="black" stroke="black" points="515.141,-294 505.141,-297.5 515.141,-301 515.141,-294"/>
</g>
<!-- biapply&#45;&gt;apply -->
<g id="edge22" class="edge"><title>biapply&#45;&gt;apply</title>
<path fill="none" stroke="black" stroke-dasharray="5,2" d="M566.953,-319.574C558.063,-322.264 549.304,-325.234 540.974,-328.5 490.585,-348.256 437.232,-381.368 404.438,-403.323"/>
</g>
<!-- alt -->
<g id="node26" class="node"><title>alt</title>
<polygon fill="none" stroke="black" points="923.539,-492.5 923.539,-564.5 1142.05,-564.5 1142.05,-492.5 923.539,-492.5"/>
<text text-anchor="middle" x="1032.56" y="-549.3" font-family="Times,serif" font-size="14.00">Alt f</text>
<polyline fill="none" stroke="black" points="923.539,-542.5 1142.05,-542.5 "/>
<text text-anchor="start" x="931.539" y="-527.3" font-family="Times,serif" font-size="14.00">(&lt;!&gt;) :: f a &#45;&gt; f a &#45;&gt; f a </text>
<text text-anchor="start" x="931.539" y="-513.3" font-family="Times,serif" font-size="14.00">some :: Applicative f =&gt; f a &#45;&gt; f [a] </text>
<text text-anchor="start" x="931.539" y="-499.3" font-family="Times,serif" font-size="14.00">many :: Applicative f =&gt; f a &#45;&gt; f [a] </text>
</g>
<!-- alt&#45;&gt;functor -->
<g id="edge27" class="edge"><title>alt&#45;&gt;functor</title>
<path fill="none" stroke="black" d="M923.437,-523.251C770.151,-514.787 481.562,-495.028 238.409,-456.5 226.313,-454.583 213.689,-452.217 201.216,-449.652"/>
<polygon fill="black" stroke="black" points="201.765,-446.191 191.258,-447.557 200.324,-453.041 201.765,-446.191"/>
</g>
<!-- alt&#45;&gt;applicative -->
<g id="edge30" class="edge"><title>alt&#45;&gt;applicative</title>
<path fill="none" stroke="black" stroke-dasharray="1,5" d="M952.572,-492.368C887.061,-462.491 795.55,-420.756 736.721,-393.927"/>
<polygon fill="black" stroke="black" points="738.12,-390.718 727.569,-389.753 735.215,-397.087 738.12,-390.718"/>
</g>
<!-- apply&#45;&gt;functor -->
<g id="edge28" class="edge"><title>apply&#45;&gt;functor</title>
<path fill="none" stroke="black" d="M280.542,-425.5C258.877,-425.5 235.487,-425.5 213.003,-425.5"/>
<polygon fill="black" stroke="black" points="212.746,-422 202.746,-425.5 212.746,-429 212.746,-422"/>
</g>
<!-- semigroup -->
<g id="node28" class="node"><title>semigroup</title>
<polygon fill="none" stroke="black" points="980.633,-0.5 980.633,-44.5 1084.96,-44.5 1084.96,-0.5 980.633,-0.5"/>
<text text-anchor="middle" x="1032.71" y="-29.3" font-family="Times,serif" font-size="14.00">Semigroup a</text>
<polyline fill="none" stroke="black" points="980.633,-22.5 1084.96,-22.5 "/>
<text text-anchor="middle" x="1032.8" y="-7.3" font-family="Times,serif" font-size="14.00">&lt;&gt; :: a &#45;&gt; a &#45;&gt; a</text>
</g>
<!-- bind&#45;&gt;apply -->
<g id="edge29" class="edge"><title>bind&#45;&gt;apply</title>
<path fill="none" stroke="black" d="M653.671,-781.246C597.467,-710.087 454.034,-528.488 396.804,-456.028"/>
<polygon fill="black" stroke="black" points="399.208,-453.426 390.263,-447.748 393.715,-457.765 399.208,-453.426"/>
</g>
<!-- bindtrans -->
<g id="node31" class="node"><title>bindtrans</title>
<polygon fill="none" stroke="black" points="1801.47,-931.5 1801.47,-975.5 1978.81,-975.5 1978.81,-931.5 1801.47,-931.5"/>
<text text-anchor="middle" x="1889.97" y="-960.3" font-family="Times,serif" font-size="14.00">BindTrans t</text>
<polyline fill="none" stroke="black" points="1801.47,-953.5 1978.81,-953.5 "/>
<text text-anchor="middle" x="1890.14" y="-938.3" font-family="Times,serif" font-size="14.00">liftB :: Bind b =&gt; b a &#45;&gt; t b a</text>
</g>
<!-- bindtrans&#45;&gt;bind -->
<g id="edge25" class="edge"><title>bindtrans&#45;&gt;bind</title>
<path fill="none" stroke="black" stroke-dasharray="5,2" d="M1819.27,-975.627C1782.18,-988.282 1736.25,-1005.42 1696.87,-1024.5 1679.99,-1032.68 1678.92,-1041.42 1660.87,-1046.5 1485.52,-1095.84 1429.7,-1081.9 1251.01,-1046.5 1054.29,-1007.53 840.29,-899.963 738.742,-844.521"/>
<polygon fill="black" stroke="black" points="740.309,-841.388 729.858,-839.647 736.942,-847.525 740.309,-841.388"/>
</g>
<!-- monadtrans -->
<g id="node32" class="node"><title>monadtrans</title>
<polygon fill="none" stroke="black" points="1358.14,-839.5 1358.14,-883.5 1553.74,-883.5 1553.74,-839.5 1358.14,-839.5"/>
<text text-anchor="middle" x="1455.86" y="-868.3" font-family="Times,serif" font-size="14.00">MonadTrans t</text>
<polyline fill="none" stroke="black" points="1358.14,-861.5 1553.74,-861.5 "/>
<text text-anchor="start" x="1366.14" y="-846.3" font-family="Times,serif" font-size="14.00">lift :: Monad m =&gt; m a &#45;&gt; t m a </text>
</g>
<!-- bindtrans&#45;&gt;monadtrans -->
<g id="edge24" class="edge"><title>bindtrans&#45;&gt;monadtrans</title>
<path fill="none" stroke="black" d="M1815.1,-931.495C1770.67,-918.848 1712.87,-903.366 1660.87,-892.5 1629.55,-885.957 1595.26,-880.205 1563.88,-875.49"/>
<polygon fill="black" stroke="black" points="1564.21,-872 1553.8,-873.995 1563.18,-878.924 1564.21,-872"/>
</g>
<!-- monadtrans&#45;&gt;monad -->
<g id="edge26" class="edge"><title>monadtrans&#45;&gt;monad</title>
<path fill="none" stroke="black" stroke-dasharray="5,2" d="M1358.06,-849.768C1279,-840.194 1169.41,-826.923 1100.06,-818.525"/>
<polygon fill="black" stroke="black" points="1100.48,-815.05 1090.13,-817.322 1099.64,-821.999 1100.48,-815.05"/>
</g>
<!-- extend&#45;&gt;functor -->
<g id="edge18" class="edge"><title>extend&#45;&gt;functor</title>
<path fill="none" stroke="black" d="M351.812,-809.459C302.95,-734.297 172.66,-533.878 122.385,-456.543"/>
<polygon fill="black" stroke="black" points="125.047,-454.215 116.662,-447.739 119.178,-458.031 125.047,-454.215"/>
</g>
<!-- plus&#45;&gt;alt -->
<g id="edge17" class="edge"><title>plus&#45;&gt;alt</title>
<path fill="none" stroke="black" d="M1419.4,-515.682C1361.1,-517.62 1242.62,-521.558 1152.29,-524.561"/>
<polygon fill="black" stroke="black" points="1152.14,-521.064 1142.26,-524.894 1152.37,-528.06 1152.14,-521.064"/>
</g>
<!-- groupoid -->
<g id="node35" class="node"><title>groupoid</title>
<polygon fill="none" stroke="black" points="1394.61,-1235.5 1394.61,-1279.5 1517.27,-1279.5 1517.27,-1235.5 1394.61,-1235.5"/>
<text text-anchor="middle" x="1455.44" y="-1264.3" font-family="Times,serif" font-size="14.00">Groupoid</text>
<polyline fill="none" stroke="black" points="1394.61,-1257.5 1517.27,-1257.5 "/>
<text text-anchor="middle" x="1455.94" y="-1242.3" font-family="Times,serif" font-size="14.00">inv :: k a b &#45;&gt; k b a</text>
</g>
<!-- groupoid&#45;&gt;semigroupoid -->
<g id="edge16" class="edge"><title>groupoid&#45;&gt;semigroupoid</title>
<path fill="none" stroke="black" d="M1394.6,-1248.47C1322,-1237.61 1199.7,-1219.32 1117.88,-1207.08"/>
<polygon fill="black" stroke="black" points="1118.26,-1203.6 1107.86,-1205.58 1117.23,-1210.52 1118.26,-1203.6"/>
</g>
<!-- bifoldable -->
<g id="node36" class="node"><title>bifoldable</title>
<polygon fill="none" stroke="black" points="850.579,-63.5 850.579,-121.5 1215.01,-121.5 1215.01,-63.5 850.579,-63.5"/>
<text text-anchor="middle" x="1032.38" y="-106.3" font-family="Times,serif" font-size="14.00">Bifoldable p</text>
<polyline fill="none" stroke="black" points="850.579,-99.5 1215.01,-99.5 "/>
<text text-anchor="start" x="858.579" y="-84.3" font-family="Times,serif" font-size="14.00">bifold :: Monoid m =&gt; p m m &#45;&gt; m </text>
<text text-anchor="start" x="858.579" y="-70.3" font-family="Times,serif" font-size="14.00">bifoldMap :: Monoid m =&gt; (a &#45;&gt; m) &#45;&gt; (b &#45;&gt; m) &#45;&gt; p a b &#45;&gt; m </text>
</g>
<!-- bifoldable&#45;&gt;monoid -->
<g id="edge12" class="edge"><title>bifoldable&#45;&gt;monoid</title>
<path fill="none" stroke="black" stroke-dasharray="5,2" d="M850.523,-98.6228C757.893,-101.979 643.395,-106.475 540.974,-111.5 514.909,-112.779 486.587,-114.38 460.741,-115.924"/>
<polygon fill="black" stroke="black" points="460.362,-112.44 450.59,-116.534 460.782,-119.427 460.362,-112.44"/>
</g>
<!-- bifoldable&#45;&gt;foldable -->
<g id="edge15" class="edge"><title>bifoldable&#45;&gt;foldable</title>
<path fill="none" stroke="black" stroke-dasharray="5,2" d="M855.028,-121.542C841.51,-123.763 827.994,-125.984 814.797,-128.152"/>
</g>
<!-- bifoldable1 -->
<g id="node37" class="node"><title>bifoldable1</title>
<polygon fill="none" stroke="black" points="1263.23,-6.5 1263.23,-64.5 1648.65,-64.5 1648.65,-6.5 1263.23,-6.5"/>
<text text-anchor="middle" x="1455.77" y="-49.3" font-family="Times,serif" font-size="14.00">Bifoldable1</text>
<polyline fill="none" stroke="black" points="1263.23,-42.5 1648.65,-42.5 "/>
<text text-anchor="start" x="1271.23" y="-27.3" font-family="Times,serif" font-size="14.00">bifold1 :: Semigroup m =&gt; t m m &#45;&gt; m </text>
<text text-anchor="start" x="1271.23" y="-13.3" font-family="Times,serif" font-size="14.00">bifoldMap1 :: Semigroup m =&gt; (a &#45;&gt; m) &#45;&gt; (b &#45;&gt; m) &#45;&gt; t a b &#45;&gt; m </text>
</g>
<!-- bifoldable1&#45;&gt;semigroup -->
<g id="edge14" class="edge"><title>bifoldable1&#45;&gt;semigroup</title>
<path fill="none" stroke="black" stroke-dasharray="5,2" d="M1263.16,-29.5801C1202.53,-27.7086 1139.81,-25.7725 1095.31,-24.3989"/>
<polygon fill="black" stroke="black" points="1095.36,-20.8988 1085.26,-24.0885 1095.14,-27.8954 1095.36,-20.8988"/>
</g>
<!-- bifoldable1&#45;&gt;bifoldable -->
<g id="edge13" class="edge"><title>bifoldable1&#45;&gt;bifoldable</title>
<path fill="none" stroke="black" d="M1263.16,-61.4564C1250.57,-63.1606 1237.89,-64.8771 1225.3,-66.5811"/>
<polygon fill="black" stroke="black" points="1224.66,-63.1349 1215.22,-67.9446 1225.6,-70.0717 1224.66,-63.1349"/>
</g>
<!-- bitraversable -->
<g id="node38" class="node"><title>bitraversable</title>
<polygon fill="none" stroke="black" points="1251.01,-237.5 1251.01,-295.5 1660.87,-295.5 1660.87,-237.5 1251.01,-237.5"/>
<text text-anchor="middle" x="1455.53" y="-280.3" font-family="Times,serif" font-size="14.00">Bitraversable t</text>
<polyline fill="none" stroke="black" points="1251.01,-273.5 1660.87,-273.5 "/>
<text text-anchor="start" x="1259.01" y="-258.3" font-family="Times,serif" font-size="14.00">bitraverse :: Applicative f =&gt; (a &#45;&gt; f c) &#45;&gt; (b &#45;&gt; f d) &#45;&gt; t a b &#45;&gt; f (t c d) </text>
<text text-anchor="start" x="1259.01" y="-244.3" font-family="Times,serif" font-size="14.00">bisequenceA :: Applicative f =&gt; t (f a) (f b) &#45;&gt; f (t a b) </text>
</g>
<!-- bitraversable&#45;&gt;applicative -->
<g id="edge8" class="edge"><title>bitraversable&#45;&gt;applicative</title>
<path fill="none" stroke="black" stroke-dasharray="5,2" d="M1250.95,-281.243C1133.42,-291.279 983.152,-306.734 850.579,-328.5 812.696,-334.719 770.662,-344.215 737.653,-352.28"/>
<polygon fill="black" stroke="black" points="736.584,-348.938 727.713,-354.731 738.26,-355.735 736.584,-348.938"/>
</g>
<!-- bitraversable&#45;&gt;traversable -->
<g id="edge11" class="edge"><title>bitraversable&#45;&gt;traversable</title>
<path fill="none" stroke="black" stroke-dasharray="5,2" d="M1250.84,-238.392C1229.45,-235.445 1207.96,-232.486 1187.27,-229.637"/>
</g>
<!-- bitraversable&#45;&gt;bifunctor -->
<g id="edge9" class="edge"><title>bitraversable&#45;&gt;bifunctor</title>
<path fill="none" stroke="black" d="M1250.69,-255.213C1065.13,-247.585 784.058,-242.593 540.974,-265.5 532.476,-266.301 523.769,-267.324 515.006,-268.51"/>
<polygon fill="black" stroke="black" points="514.507,-265.046 505.097,-269.915 515.49,-271.977 514.507,-265.046"/>
</g>
<!-- bitraversable&#45;&gt;bifoldable -->
<g id="edge10" class="edge"><title>bitraversable&#45;&gt;bifoldable</title>
<path fill="none" stroke="black" d="M1384.45,-237.376C1309.63,-206.465 1191.64,-157.714 1113.49,-125.427"/>
<polygon fill="black" stroke="black" points="1114.74,-122.157 1104.16,-121.574 1112.07,-128.627 1114.74,-122.157"/>
</g>
<!-- bitraversable1 -->
<g id="node39" class="node"><title>bitraversable1</title>
<polygon fill="none" stroke="black" points="1696.87,-335.5 1696.87,-393.5 2083.41,-393.5 2083.41,-335.5 1696.87,-335.5"/>
<text text-anchor="middle" x="1889.88" y="-378.3" font-family="Times,serif" font-size="14.00">Bitraversable1 t</text>
<polyline fill="none" stroke="black" points="1696.87,-371.5 2083.41,-371.5 "/>
<text text-anchor="start" x="1704.87" y="-356.3" font-family="Times,serif" font-size="14.00">bitraverse1 :: Apply f =&gt; (a &#45;&gt; f b) &#45;&gt; (c &#45;&gt; f d) &#45;&gt; t a c &#45;&gt; f (t b d) </text>
<text text-anchor="start" x="1704.87" y="-342.3" font-family="Times,serif" font-size="14.00">bisequence1 :: Apply f =&gt; t (f a) (f b) &#45;&gt; f (t a b) </text>
</g>
<!-- bitraversable1&#45;&gt;apply -->
<g id="edge7" class="edge"><title>bitraversable1&#45;&gt;apply</title>
<path fill="none" stroke="black" stroke-dasharray="5,2" d="M1770.13,-393.549C1735.13,-400.996 1696.64,-408.129 1660.87,-412.5 1287.32,-458.134 1190.86,-434.333 814.579,-439.5 692.988,-441.17 662.471,-444.545 540.974,-439.5 519.002,-438.588 495.458,-437.008 473.149,-435.23"/>
<polygon fill="black" stroke="black" points="473.248,-431.727 462.996,-434.401 472.678,-438.704 473.248,-431.727"/>
</g>
<!-- bitraversable1&#45;&gt;bitraversable -->
<g id="edge6" class="edge"><title>bitraversable1&#45;&gt;bitraversable</title>
<path fill="none" stroke="black" d="M1761.22,-335.495C1708.85,-323.619 1648.13,-309.852 1594.78,-297.754"/>
<polygon fill="black" stroke="black" points="1595.43,-294.314 1584.9,-295.516 1593.88,-301.14 1595.43,-294.314"/>
</g>
<!-- foldable1 -->
<g id="node40" class="node"><title>foldable1</title>
<polygon fill="none" stroke="black" points="1308.84,-108.5 1308.84,-166.5 1603.04,-166.5 1603.04,-108.5 1308.84,-108.5"/>
<text text-anchor="middle" x="1455.53" y="-151.3" font-family="Times,serif" font-size="14.00">Foldable1 t</text>
<polyline fill="none" stroke="black" points="1308.84,-144.5 1603.04,-144.5 "/>
<text text-anchor="start" x="1316.84" y="-129.3" font-family="Times,serif" font-size="14.00">fold1 :: Semigroup m =&gt; t m&#45;&gt; m </text>
<text text-anchor="start" x="1316.84" y="-115.3" font-family="Times,serif" font-size="14.00">foldMap1 :: Semigroup m =&gt; (a &#45;&gt; m)&#45;&gt; t a &#45;&gt; m </text>
</g>
<!-- foldable1&#45;&gt;foldable -->
<g id="edge4" class="edge"><title>foldable1&#45;&gt;foldable</title>
<path fill="none" stroke="black" d="M1308.49,-139.953C1170.06,-142.271 963.497,-145.731 825.103,-148.049"/>
<polygon fill="black" stroke="black" points="824.784,-144.554 814.844,-148.221 824.901,-151.553 824.784,-144.554"/>
</g>
<!-- foldable1&#45;&gt;semigroup -->
<g id="edge5" class="edge"><title>foldable1&#45;&gt;semigroup</title>
<path fill="none" stroke="black" stroke-dasharray="5,2" d="M1348.14,-108.453C1316.4,-98.6304 1281.87,-86.7502 1251.01,-73.5 1234.2,-66.278 1232.28,-59.5739 1215.01,-53.5 1176.51,-39.9552 1131.26,-32.2071 1095.6,-27.8442"/>
<polygon fill="black" stroke="black" points="1095.68,-24.3295 1085.34,-26.6489 1094.87,-31.2825 1095.68,-24.3295"/>
</g>
<!-- traversable1 -->
<g id="node41" class="node"><title>traversable1</title>
<polygon fill="none" stroke="black" points="1313.13,-345.5 1313.13,-403.5 1598.75,-403.5 1598.75,-345.5 1313.13,-345.5"/>
<text text-anchor="middle" x="1455.92" y="-388.3" font-family="Times,serif" font-size="14.00">Traversable1</text>
<polyline fill="none" stroke="black" points="1313.13,-381.5 1598.75,-381.5 "/>
<text text-anchor="start" x="1321.13" y="-366.3" font-family="Times,serif" font-size="14.00">traverse1 :: Apply f =&gt; (a &#45;&gt; f b) &#45;&gt; t a &#45;&gt; f (t b) </text>
<text text-anchor="start" x="1321.13" y="-352.3" font-family="Times,serif" font-size="14.00">sequence1 :: Apply f =&gt; t (f b) &#45;&gt; f (t b) </text>
</g>
<!-- traversable1&#45;&gt;traversable -->
<g id="edge2" class="edge"><title>traversable1&#45;&gt;traversable</title>
<path fill="none" stroke="black" d="M1365,-345.473C1329.27,-333.463 1287.96,-318.974 1251.01,-304.5 1201.76,-285.204 1147.32,-261.137 1105.26,-241.928"/>
<polygon fill="black" stroke="black" points="1106.49,-238.64 1095.94,-237.657 1103.57,-245.004 1106.49,-238.64"/>
</g>
<!-- traversable1&#45;&gt;apply -->
<g id="edge3" class="edge"><title>traversable1&#45;&gt;apply</title>
<path fill="none" stroke="black" stroke-dasharray="5,2" d="M1313.1,-395.326C1280.92,-399.354 1246.84,-403.073 1215.01,-405.5 947.413,-425.908 630.734,-427.337 472.774,-426.508"/>
<polygon fill="black" stroke="black" points="472.621,-423.007 462.602,-426.45 472.582,-430.007 472.621,-423.007"/>
</g>
<!-- ob -->
<g id="node42" class="node"><title>ob</title>
<polygon fill="none" stroke="black" points="1406.92,-1172.5 1406.92,-1216.5 1504.96,-1216.5 1504.96,-1172.5 1406.92,-1172.5"/>
<text text-anchor="middle" x="1455.73" y="-1201.3" font-family="Times,serif" font-size="14.00">Ob k</text>
<polyline fill="none" stroke="black" points="1406.92,-1194.5 1504.96,-1194.5 "/>
<text text-anchor="start" x="1414.92" y="-1179.3" font-family="Times,serif" font-size="14.00">semiid :: k a a </text>
</g>
<!-- ob&#45;&gt;semigroupoid -->
<g id="edge1" class="edge"><title>ob&#45;&gt;semigroupoid</title>
<path fill="none" stroke="black" d="M1406.63,-1194.5C1336.18,-1194.5 1204.23,-1194.5 1117.7,-1194.5"/>
<polygon fill="black" stroke="black" points="1117.64,-1191 1107.64,-1194.5 1117.64,-1198 1117.64,-1191"/>
</g>
</g>
</svg>
